<?xml version="1.0" encoding="utf-8"?>
<!-- Generator: Adobe Illustrator 16.0.0, SVG Export Plug-In . SVG Version: 6.00 Build 0)  -->
<!DOCTYPE svg PUBLIC "-//W3C//DTD SVG 1.1//EN" "http://www.w3.org/Graphics/SVG/1.1/DTD/svg11.dtd">
<svg version="1.1" id="Layer_1" xmlns="http://www.w3.org/2000/svg" xmlns:xlink="http://www.w3.org/1999/xlink" x="0px" y="0px"
	 width="283.46px" height="283.46px" viewBox="0 0 283.46 283.46" enable-background="new 0 0 283.46 283.46" xml:space="preserve">
<g>
	<path fill="#F47920" d="M163.184,96.234c4.271-0.143,8.562-0.035,12.849-0.035c0.526,0,1.053,0,1.762,0V73.932
		c-2.287-0.233-4.67-0.557-7.067-0.673c-4.394-0.194-8.785-0.415-13.187-0.319c-6.713,0.142-13.061,1.777-18.591,5.756
		c-6.364,4.573-9.854,10.998-11.179,18.591c-0.548,3.128-0.699,6.369-0.786,9.548c-0.125,4.996-0.017,9.988-0.017,14.989v1.873
		H105.67v24.869h21.172v62.51h25.883v-62.406h21.116c1.087-8.271,2.131-16.463,3.252-24.989c-1.69,0-3.227,0-4.745,0
		c-6.007,0.026-19.778,0-19.778,0s0.053-12.327,0.189-17.673C152.966,98.681,157.316,96.446,163.184,96.234z"/>
</g>
</svg>
