<?xml version="1.0" encoding="utf-8"?>
<!-- Generator: Adobe Illustrator 16.0.0, SVG Export Plug-In . SVG Version: 6.00 Build 0)  -->
<!DOCTYPE svg PUBLIC "-//W3C//DTD SVG 1.1//EN" "http://www.w3.org/Graphics/SVG/1.1/DTD/svg11.dtd">
<svg version="1.1" id="Layer_1" xmlns="http://www.w3.org/2000/svg" xmlns:xlink="http://www.w3.org/1999/xlink" x="0px" y="0px"
	 width="283.46px" height="283.46px" viewBox="0 0 283.46 283.46" enable-background="new 0 0 283.46 283.46" xml:space="preserve">
<g>
	<path fill="#F47920" d="M185,78.77H98.46c-10.859,0-19.688,8.819-19.688,19.696v86.53c0,10.863,8.819,19.691,19.688,19.691h86.538
		c10.873,0,19.701-8.818,19.701-19.691V98.465C204.691,87.588,195.873,78.77,185,78.77z M168.689,96.131
		c0-1.933,1.57-3.499,3.514-3.499h15.203c1.942,0,3.514,1.575,3.514,3.499v15.209c0,1.955-1.57,3.517-3.514,3.517h-15.203
		c-1.941,0-3.514-1.571-3.514-3.517V96.131z M118.528,132.637c3.633-9.272,12.664-15.843,23.204-15.843
		c10.545,0,19.571,6.571,23.204,15.843c1.112,2.826,1.726,5.885,1.726,9.091c0,13.736-11.191,24.938-24.938,24.938
		c-13.742,0-24.925-11.201-24.925-24.938C116.806,138.522,117.415,135.463,118.528,132.637z M191.367,184.996
		c0,3.494-2.854,6.352-6.367,6.352h-86.53c-3.499,0-6.342-2.848-6.342-6.352v-52.357h12.43c-0.716,2.912-1.087,5.954-1.087,9.091
		c0,21.142,17.125,38.263,38.271,38.263c21.149,0,38.271-17.121,38.271-38.263c0-3.137-0.371-6.179-1.089-9.091h12.443V184.996
		L191.367,184.996z"/>
</g>
</svg>
