<?xml version="1.0" encoding="utf-8"?>
<!-- Generator: Adobe Illustrator 16.0.0, SVG Export Plug-In . SVG Version: 6.00 Build 0)  -->
<!DOCTYPE svg PUBLIC "-//W3C//DTD SVG 1.1//EN" "http://www.w3.org/Graphics/SVG/1.1/DTD/svg11.dtd">
<svg version="1.1" id="Layer_1" xmlns="http://www.w3.org/2000/svg" xmlns:xlink="http://www.w3.org/1999/xlink" x="0px" y="0px"
	 width="94.083px" height="59.688px" viewBox="-0.779 -7.281 94.083 59.688" enable-background="new -0.779 -7.281 94.083 59.688"
	 xml:space="preserve">
<g>
	<g>
		<path fill="#FFFFFF" d="M74.611,34.847c0,1.56-1.275,2.835-2.835,2.835H8.445c-1.559,0-2.834-1.275-2.834-2.835V4.99
			c0-1.559,1.275-2.834,2.834-2.834h63.331c1.56,0,2.835,1.275,2.835,2.834V34.847z"/>
	</g>
	<circle fill="#FFFFFF" cx="61.939" cy="22.483" r="28.672"/>
	<g>
		<g opacity="0.5">
			<path fill="none" d="M71.985,32.356c-0.401,0.919-0.949,1.72-1.644,2.4c-0.693,0.683-1.508,1.222-2.442,1.615
				c-0.936,0.395-1.929,0.593-2.98,0.593c-1.051,0-2.045-0.198-2.979-0.593c-0.068-0.028-0.124-0.07-0.19-0.102
				c-0.424,0.167-0.899,0.323-1.456,0.457c-0.65,0.158-1.392,0.237-2.225,0.237c-1.052,0-2.045-0.176-2.979-0.528
				c-0.741-0.278-1.405-0.659-2-1.131v1.314h-3.255h-1.697h-3.43l-1.314-2.347l-1.314,2.347h-2.789h-2.316h-2.598h-3.697h-0.158
				l-3.791-5.513l-3.812,5.513h-3.856V22.257h4.667v5.169l3.002-4.308l2.979,4.308v-5.169h0.97h3.697h2.312h2.755h2.351l1.6,2.864
				l1.621-2.864h3.123h1.982h2.97v1.342c0.594-0.467,1.245-0.872,2-1.158c0.964-0.366,2.016-0.549,3.155-0.549
				c0.847,0,1.6,0.085,2.257,0.258c0.489,0.128,0.909,0.268,1.293,0.412c0.052-0.023,0.094-0.056,0.146-0.078
				c0.935-0.396,1.929-0.592,2.979-0.592c1.052,0,2.045,0.196,2.98,0.592c0.935,0.395,1.749,0.934,2.442,1.614
				c0.694,0.683,1.242,1.483,1.644,2.401c0.401,0.919,0.603,1.895,0.603,2.929C72.587,30.461,72.386,31.437,71.985,32.356z
				 M38.798,26.025h-3.454v1.658h3.878v3.574h-3.878v1.595h3.735l1.77-3.166L38.798,26.025z M45.954,29.686l2.182,3.899v-7.792
				L45.954,29.686z M56.031,27.296c-0.293,0.272-0.522,0.592-0.69,0.959c-0.168,0.365-0.252,0.756-0.252,1.173
				s0.08,0.808,0.241,1.174c0.16,0.366,0.383,0.686,0.668,0.959c0.285,0.271,0.617,0.487,0.997,0.646
				c0.274,0.114,0.575,0.172,0.888,0.203c-0.009-0.018-0.021-0.033-0.029-0.053c-0.402-0.919-0.603-1.896-0.603-2.929
				c0-1.034,0.2-2.01,0.603-2.929c0.007-0.016,0.018-0.028,0.024-0.045c-0.286,0.037-0.562,0.094-0.817,0.196
				C56.665,26.807,56.323,27.023,56.031,27.296z M67.745,28.255c-0.161-0.367-0.38-0.687-0.657-0.959
				c-0.278-0.272-0.603-0.488-0.976-0.646c-0.372-0.159-0.771-0.237-1.194-0.237s-0.821,0.078-1.193,0.237
				c-0.373,0.157-0.698,0.373-0.976,0.646s-0.496,0.592-0.657,0.959c-0.161,0.365-0.241,0.756-0.241,1.173s0.08,0.808,0.241,1.174
				s0.38,0.686,0.657,0.959c0.277,0.271,0.603,0.487,0.976,0.646c0.372,0.157,0.77,0.236,1.193,0.236s0.822-0.079,1.194-0.236
				c0.373-0.158,0.697-0.374,0.976-0.646c0.277-0.273,0.496-0.593,0.657-0.959c0.16-0.366,0.241-0.757,0.241-1.174
				S67.906,28.62,67.745,28.255z"/>
			
				<linearGradient id="SVGID_1_" gradientUnits="userSpaceOnUse" x1="63.9836" y1="15.1189" x2="63.9836" y2="0.0457" gradientTransform="matrix(0.9998 7.000000e-04 -0.0014 0.9822 0.955 22.0493)">
				<stop  offset="0.2" style="stop-color:#FFFFFF"/>
				<stop  offset="1" style="stop-color:#00A551"/>
			</linearGradient>
			<path opacity="0.6" fill="url(#SVGID_1_)" d="M57.249,29.535c-0.001,1.016,0.197,1.976,0.598,2.878
				c0.4,0.903,0.947,1.688,1.64,2.358c0.693,0.671,1.507,1.201,2.441,1.589c0.933,0.388,1.927,0.583,2.978,0.584
				c1.052,0.001,2.045-0.192,2.981-0.58c0.935-0.386,1.749-0.915,2.443-1.585c0.695-0.668,1.244-1.454,1.646-2.356
				c0.402-0.901,0.605-1.862,0.606-2.876c0.001-1.017-0.198-1.975-0.599-2.877c-0.399-0.901-0.946-1.688-1.64-2.36
				c-0.692-0.669-1.506-1.199-2.44-1.587c-0.935-0.389-1.927-0.583-2.979-0.583c-1.051-0.002-2.045,0.19-2.98,0.579
				c-0.935,0.387-1.75,0.915-2.445,1.583c-0.693,0.67-1.242,1.457-1.645,2.357C57.452,27.562,57.25,28.52,57.249,29.535z
				 M61.849,29.539c0.001-0.409,0.081-0.793,0.243-1.151c0.161-0.361,0.381-0.675,0.658-0.941c0.277-0.269,0.604-0.479,0.977-0.634
				c0.372-0.156,0.77-0.232,1.192-0.232c0.424,0,0.822,0.078,1.194,0.235c0.373,0.153,0.696,0.365,0.975,0.634
				c0.277,0.268,0.495,0.582,0.656,0.943c0.159,0.357,0.24,0.741,0.239,1.151c-0.001,0.409-0.082,0.793-0.243,1.152
				s-0.381,0.673-0.658,0.941c-0.278,0.267-0.604,0.479-0.977,0.633c-0.372,0.155-0.771,0.232-1.194,0.232
				c-0.424-0.001-0.821-0.078-1.193-0.234c-0.372-0.154-0.696-0.367-0.974-0.634c-0.276-0.27-0.495-0.583-0.656-0.942
				C61.928,30.333,61.848,29.948,61.849,29.539z"/>
			<linearGradient id="SVGID_2_" gradientUnits="userSpaceOnUse" x1="26.7166" y1="36.4216" x2="26.7166" y2="22.0583">
				<stop  offset="0.2" style="stop-color:#FFFFFF"/>
				<stop  offset="1" style="stop-color:#EB008B"/>
			</linearGradient>
			<path opacity="0.6" fill="url(#SVGID_2_)" d="M19.059,36.422h3.856l3.812-5.513l3.791,5.513h3.855V22.058h-4.667v5.169
				l-2.979-4.308l-3.002,4.308v-5.169h-4.667V36.422z"/>
			
				<linearGradient id="SVGID_3_" gradientUnits="userSpaceOnUse" x1="56.0383" y1="15.1189" x2="56.0383" y2="0.0457" gradientTransform="matrix(0.9998 7.000000e-04 -0.0014 0.9822 0.955 22.0493)">
				<stop  offset="0.2" style="stop-color:#FFFFFF"/>
				<stop  offset="1" style="stop-color:#2E3191"/>
			</linearGradient>
			<path opacity="0.6" fill="url(#SVGID_3_)" d="M50.356,29.531c-0.002,1.128,0.201,2.146,0.608,3.056
				c0.408,0.911,0.961,1.689,1.662,2.339c0.7,0.649,1.518,1.147,2.452,1.492c0.934,0.348,1.926,0.521,2.978,0.521
				c0.833,0,1.574-0.076,2.225-0.231c0.649-0.154,1.209-0.33,1.677-0.526c0.54-0.227,1.009-0.473,1.402-0.74l-2.295-3.914
				c-0.233,0.169-0.489,0.332-0.767,0.484c-0.25,0.114-0.546,0.224-0.889,0.328c-0.343,0.106-0.733,0.158-1.172,0.157
				c-0.453,0-0.869-0.078-1.248-0.232c-0.38-0.156-0.711-0.368-0.996-0.635c-0.285-0.27-0.507-0.583-0.667-0.941
				c-0.16-0.361-0.24-0.745-0.239-1.154c0.001-0.41,0.085-0.793,0.254-1.151c0.168-0.361,0.397-0.675,0.691-0.941
				c0.292-0.268,0.636-0.48,1.03-0.634c0.395-0.155,0.825-0.233,1.293-0.232c0.467,0.001,0.883,0.058,1.248,0.172
				c0.365,0.111,0.671,0.239,0.919,0.381c0.292,0.153,0.548,0.34,0.767,0.55l2.306-3.912c-0.395-0.31-0.86-0.585-1.401-0.825
				c-0.467-0.197-1.028-0.382-1.686-0.551c-0.657-0.17-1.409-0.255-2.256-0.255c-1.14-0.002-2.191,0.178-3.156,0.536
				c-0.964,0.358-1.798,0.862-2.499,1.511c-0.702,0.648-1.251,1.426-1.646,2.336C50.556,27.426,50.357,28.431,50.356,29.531z"/>
			<linearGradient id="SVGID_4_" gradientUnits="userSpaceOnUse" x1="35.0593" y1="36.4216" x2="35.0593" y2="22.0583">
				<stop  offset="0.2" style="stop-color:#FFFFFF"/>
				<stop  offset="1" style="stop-color:#00ADEE"/>
			</linearGradient>
			<path opacity="0.6" fill="url(#SVGID_4_)" d="M30.677,36.422h8.611v-3.768h-3.944v-1.595h3.878v-3.574h-3.878v-1.658h4.098
				v-3.769h-8.765V36.422z"/>
			<linearGradient id="SVGID_5_" gradientUnits="userSpaceOnUse" x1="50.6125" y1="36.4216" x2="50.6125" y2="22.0583">
				<stop  offset="0.2" style="stop-color:#FFFFFF"/>
				<stop  offset="1" style="stop-color:#EC1C24"/>
			</linearGradient>
			<path opacity="0.6" fill="url(#SVGID_5_)" d="M48.136,36.422h4.952V22.058h-4.952V36.422z"/>
			<linearGradient id="SVGID_6_" gradientUnits="userSpaceOnUse" x1="43.4026" y1="36.4216" x2="43.4026" y2="22.0583">
				<stop  offset="0.2" style="stop-color:#FFFFFF"/>
				<stop  offset="1" style="stop-color:#FFF100"/>
			</linearGradient>
			<path opacity="0.6" fill="url(#SVGID_6_)" d="M40.849,29.488l-3.877,6.934h5.105l1.314-2.347l1.314,2.347h5.127l-3.879-6.934
				l4.164-7.43h-5.105l-1.621,2.864l-1.6-2.864h-5.105L40.849,29.488z"/>
		</g>
		<g>
			<g>
				<defs>
					<path id="SVGID_7_" d="M71.985,11.668c-0.401-0.935-0.949-1.749-1.644-2.442c-0.693-0.694-1.508-1.242-2.442-1.644
						c-0.936-0.401-1.929-0.603-2.98-0.603c-1.051,0-2.045,0.201-2.979,0.603c-0.068,0.029-0.124,0.072-0.19,0.104
						c-0.424-0.17-0.899-0.328-1.456-0.465c-0.65-0.161-1.392-0.241-2.225-0.241c-1.052,0-2.045,0.179-2.979,0.537
						c-0.741,0.283-1.405,0.671-2,1.151V7.33h-3.255h-1.697h-3.43l-1.314,2.388L42.077,7.33h-2.789h-2.316h-2.598h-3.697h-0.158
						l-3.791,5.609L22.915,7.33h-3.856v14.614h4.667v-5.259l3.002,4.383l2.979-4.383v5.259h0.97h3.697h2.312h2.755h2.351l1.6-2.914
						l1.621,2.914h3.123h1.982h2.97v-1.365c0.594,0.476,1.245,0.661,2,0.952c0.964,0.373,2.016,0.559,3.155,0.559
						c0.847,0,1.6-0.087,2.257-0.263c0.489-0.13,0.909-0.272,1.293-0.419c0.052,0.023,0.094,0.057,0.146,0.079
						c0.935,0.402,1.929,0.603,2.979,0.603c1.052,0,2.045-0.2,2.98-0.603c0.935-0.401,1.749-0.723,2.442-1.416
						c0.694-0.694,1.242-1.509,1.644-2.443s0.603-1.928,0.603-2.979S72.386,12.603,71.985,11.668z M38.798,18.11h-3.454v-1.688
						h3.878v-3.637h-3.878v-1.622h3.735l1.77,3.221L38.798,18.11z M45.954,14.385l2.182-3.968v7.929L45.954,14.385z M56.031,16.817
						c-0.293-0.277-0.522-0.603-0.69-0.976c-0.168-0.372-0.252-0.77-0.252-1.193s0.08-0.822,0.241-1.194
						c0.16-0.373,0.383-0.697,0.668-0.976c0.285-0.276,0.617-0.496,0.997-0.657c0.274-0.116,0.575-0.175,0.888-0.207
						c-0.009,0.019-0.021,0.034-0.029,0.054c-0.402,0.936-0.603,1.929-0.603,2.98s0.2,2.045,0.603,2.979
						c0.007,0.017,0.018,0.029,0.024,0.046c-0.286-0.037-0.562-0.095-0.817-0.199C56.665,17.314,56.323,17.094,56.031,16.817z
						 M67.745,15.842c-0.161,0.373-0.38,0.698-0.657,0.976c-0.278,0.277-0.603,0.497-0.976,0.657
						c-0.372,0.161-0.771,0.241-1.194,0.241s-0.821-0.08-1.193-0.241c-0.373-0.16-0.698-0.38-0.976-0.657s-0.496-0.603-0.657-0.976
						c-0.161-0.372-0.241-0.77-0.241-1.193s0.08-0.822,0.241-1.194c0.161-0.373,0.38-0.697,0.657-0.976
						c0.277-0.276,0.603-0.496,0.976-0.657c0.372-0.16,0.77-0.24,1.193-0.24s0.822,0.08,1.194,0.24
						c0.373,0.161,0.697,0.381,0.976,0.657c0.277,0.278,0.496,0.603,0.657,0.976c0.16,0.372,0.241,0.771,0.241,1.194
						S67.906,15.469,67.745,15.842z"/>
				</defs>
				<clipPath id="SVGID_8_">
					<use xlink:href="#SVGID_7_"  overflow="visible"/>
				</clipPath>
				<g clip-path="url(#SVGID_8_)">
					<g opacity="0.5">
						<path fill="#002A00" d="M49.299,20.546c-1.436-0.575-2.48-1.493-2.823-2.949c-0.341-1.441-0.003-3.264,1.246-5.262
							c1.246-1.991,3.373-4.074,6.41-5.794c3.027-1.72,6.786-2.902,10.843-3.192c4.06-0.296,7.928,0.338,11.111,1.648
							c3.189,1.311,5.491,3.146,6.823,5.052c1.343,1.916,1.678,3.816,1.197,5.457c-0.48,1.652-1.795,2.877-3.568,3.799
							c-1.777,0.929-3.805,1.486-5.782,1.963c-1.981,0.474-3.749,0.875-5.218,1.272c-1.473,0.395-2.591,0.763-3.455,1.033
							c-0.87,0.276-1.413,0.378-1.992,0.274c-0.577-0.096-1.148-0.385-2.024-0.746c-0.87-0.357-1.969-0.708-3.334-0.976
							c-1.362-0.272-2.935-0.444-4.629-0.617C52.409,21.334,50.739,21.127,49.299,20.546z M57.916,14.886
							c0.246,0.494,0.642,0.896,1.139,1.24c0.498,0.348,1.043,0.622,1.622,0.853c0.581,0.23,1.174,0.405,1.796,0.534
							c0.62,0.131,1.229,0.192,1.884,0.185c0.653-0.006,1.274-0.082,1.917-0.238c0.644-0.154,1.268-0.366,1.893-0.646
							c0.623-0.28,1.221-0.618,1.781-1.034c0.557-0.415,1.019-0.888,1.327-1.443c0.309-0.555,0.422-1.126,0.282-1.709
							s-0.496-1.134-1.089-1.625c-0.595-0.488-1.399-0.896-2.402-1.177c-1-0.281-2.142-0.396-3.355-0.326
							c-1.215,0.07-2.35,0.319-3.349,0.708c-1.002,0.39-1.81,0.879-2.414,1.415c-0.604,0.54-0.982,1.105-1.161,1.676
							C57.608,13.867,57.671,14.394,57.916,14.886z"/>
					</g>
					<g opacity="0.5">
						<path fill="#EB008B" d="M1.323,16.363c3.354-3.836,7.354-6.82,11.723-8.926c5.698-0.023,10.342,1.559,13.432,3.917
							c3.296-2.675,8.225-4.937,14.574-5.878c4.739,1.481,9.298,3.901,13.398,7.29c-8.332,4.303-16.665,8.605-24.997,12.908
							c-0.508-0.734-1.183-1.304-1.951-1.688c1.264-2.317,2.528-4.635,3.792-6.952c-2.705,1.472-4.482,3.368-5.306,5.265
							c-0.654-2.037-2.297-3.857-4.769-5.045c1.007,2.065,2.013,4.132,3.02,6.198c-0.889,0.117-1.779,0.441-2.597,0.992
							C14.868,21.75,8.095,19.056,1.323,16.363z"/>
					</g>
					<g opacity="0.5">
						<path fill="#2E3191" d="M42.405,20.546c-1.517-0.637-2.544-1.639-2.714-3.207c-0.169-1.553,0.421-3.512,2.034-5.586
							c1.608-2.063,4.188-4.144,7.716-5.672c3.516-1.529,7.756-2.38,12.227-2.164c3.539,0.169,6.65,0.926,9.169,1.955
							c2.521,1.029,4.51,2.249,6.005,3.425c1.733,1.357,3.007,2.753,3.88,4.029c-4.673-0.748-8.844-0.611-12.354,0.088
							c-0.454-0.487-1.016-0.976-1.688-1.443c-0.625-0.387-1.42-0.79-2.396-1.161c-0.976-0.372-2.173-0.647-3.545-0.761
							c-1.419-0.117-2.749-0.007-3.92,0.271c-1.173,0.278-2.148,0.694-2.916,1.183c-0.768,0.493-1.284,1.037-1.576,1.595
							c-0.297,0.559-0.33,1.094-0.169,1.604c0.162,0.513,0.506,0.939,0.97,1.319c0.466,0.381,0.998,0.698,1.585,0.979
							c0.587,0.282,1.201,0.518,1.861,0.724c0.662,0.208,1.345,0.357,2.11,0.469c0.767,0.112,1.465,0.193,2.146,0.217
							c0.681,0.026,1.299,0.048,1.852,0.036c0.641,0.003,1.273-0.021,1.902-0.083c-0.123,2.271-1.056,4.452-2.733,6.226
							c-0.784-0.015-1.492-0.029-2.124-0.037c-0.533-0.019-1.054-0.04-1.552-0.046c-0.499-0.003-0.902-0.089-1.346-0.25
							c-0.594-0.21-1.141-0.558-1.963-0.96c-0.815-0.398-1.858-0.783-3.166-1.071c-1.303-0.293-2.829-0.473-4.481-0.651
							C45.568,21.388,43.887,21.174,42.405,20.546z"/>
					</g>
					<g opacity="0.5">
						<path fill="#00ADEE" d="M14.545,16.363C24.958,3.988,43.674,2.009,57.195,12.21c-1.846,1.171-3.691,2.341-5.538,3.512
							c-4.66-3.621-10.189-5.31-15.595-5.177c-0.082,0.685-0.164,1.37-0.246,2.055c4.62-0.074,9.325,1.381,13.295,4.449
							c-1.727,1.127-3.453,2.254-5.18,3.381c-2.534-2.107-5.604-3.172-8.667-3.223c-0.085,0.713-0.171,1.426-0.256,2.139
							c2.473,0.114,4.914,1.095,6.833,2.942c-1.906,1.129-3.811,2.259-5.717,3.387c-0.736-1.51-2.716-2.135-4.47-1.23
							C25.951,21.75,20.248,19.056,14.545,16.363z"/>
					</g>
					<g opacity="0.5">
						<path fill="#EC1C24" d="M32.939,16.363c9.016-11.062,25.699-12.888,37.686-3.597c-6.64,4.303-13.279,8.605-19.919,12.908
							c-0.195-0.985-1.313-1.609-2.525-1.23C43.099,21.75,38.019,19.056,32.939,16.363z"/>
					</g>
					<g opacity="0.5">
						<path fill="#FFF100" d="M37.139,14.816c-4.137-1.738-10.152-1.952-16.915,0.642c4.919-5.297,11.195-8.761,17.922-10.288
							c1.935,0.609,3.656,1.414,5.137,2.359c1.569-1.156,3.401-2.23,5.487-3.165c6.979,0.496,13.939,2.999,19.966,7.612
							c-8.3-1.306-15.071-0.021-19.664,2.303c1.545,4.074,0.32,8.5-3.413,11.396c-0.532-0.818-1.301-1.415-2.182-1.757
							c0.156-1.4-0.085-2.801-0.708-4.094c-0.72,1.271-1.068,2.558-1.062,3.762c-0.973-0.004-1.98,0.271-2.899,0.858
							C36.197,22.574,35.355,18.825,37.139,14.816z"/>
					</g>
				</g>
			</g>
			<path opacity="0.6" fill="#002A00" d="M57.25,14.648c0-1.052,0.2-2.045,0.603-2.98c0.401-0.935,0.949-1.749,1.643-2.442
				c0.694-0.694,1.509-1.242,2.443-1.644s1.929-0.603,2.979-0.603c1.052,0,2.045,0.201,2.98,0.603
				c0.935,0.401,1.749,0.949,2.442,1.644c0.694,0.693,1.242,1.508,1.644,2.442c0.401,0.936,0.603,1.929,0.603,2.98
				s-0.201,2.045-0.603,2.979s-0.949,1.749-1.644,2.443c-0.693,0.693-1.508,1.015-2.442,1.416c-0.936,0.402-1.929,0.603-2.98,0.603
				c-1.051,0-2.045-0.2-2.979-0.603c-0.935-0.401-1.749-0.723-2.443-1.416c-0.693-0.694-1.241-1.509-1.643-2.443
				C57.45,16.693,57.25,15.7,57.25,14.648z M61.851,14.648c0,0.424,0.08,0.821,0.241,1.193c0.161,0.373,0.38,0.698,0.657,0.976
				s0.603,0.497,0.976,0.657c0.372,0.161,0.77,0.241,1.193,0.241s0.822-0.08,1.194-0.241c0.373-0.16,0.697-0.38,0.976-0.657
				c0.277-0.277,0.496-0.603,0.657-0.976c0.16-0.372,0.241-0.77,0.241-1.193s-0.081-0.822-0.241-1.194
				c-0.161-0.373-0.38-0.697-0.657-0.976c-0.278-0.276-0.603-0.496-0.976-0.657c-0.372-0.16-0.771-0.24-1.194-0.24
				s-0.821,0.08-1.193,0.24c-0.373,0.161-0.698,0.381-0.976,0.657c-0.277,0.278-0.496,0.603-0.657,0.976
				C61.931,13.826,61.851,14.224,61.851,14.648z"/>
			<path opacity="0.6" fill="#EB008B" d="M19.059,7.33h3.856l3.812,5.609l3.791-5.609h3.855v14.614h-4.667v-5.259l-2.979,4.383
				l-3.002-4.383v5.259h-4.667V7.33z"/>
			<path opacity="0.6" fill="#2E3191" d="M50.356,14.648c0-1.169,0.204-2.225,0.613-3.166c0.409-0.942,0.964-1.749,1.665-2.422
				c0.701-0.671,1.52-1.187,2.454-1.544c0.935-0.358,1.928-0.537,2.979-0.537c0.833,0,1.574,0.08,2.225,0.241
				c0.649,0.16,1.208,0.343,1.676,0.548c0.54,0.233,1.008,0.489,1.402,0.767l-2.301,4.054c-0.233-0.176-0.489-0.344-0.767-0.504
				c-0.249-0.117-0.545-0.23-0.888-0.34s-0.733-0.164-1.172-0.164c-0.453,0-0.869,0.08-1.249,0.24
				c-0.38,0.161-0.712,0.381-0.997,0.657c-0.285,0.278-0.508,0.603-0.668,0.976c-0.161,0.372-0.241,0.771-0.241,1.194
				s0.084,0.821,0.252,1.193c0.168,0.373,0.397,0.698,0.69,0.976c0.292,0.277,0.635,0.497,1.029,0.657
				c0.395,0.161,0.825,0.241,1.293,0.241s0.884-0.059,1.249-0.176c0.365-0.116,0.672-0.248,0.92-0.395
				c0.292-0.16,0.548-0.351,0.767-0.569l2.301,4.054c-0.395,0.321-0.861,0.38-1.402,0.628c-0.467,0.204-1.029,0.395-1.687,0.569
				c-0.657,0.176-1.41,0.263-2.257,0.263c-1.14,0-2.191-0.186-3.155-0.559c-0.964-0.372-1.797-0.668-2.498-1.34
				s-1.249-1.479-1.643-2.421C50.553,16.828,50.356,15.787,50.356,14.648z"/>
			<path opacity="0.6" fill="#00ADEE" d="M30.677,7.33h8.611v3.834h-3.944v1.622h3.878v3.637h-3.878v1.688h4.098v3.834h-8.765V7.33z
				"/>
			<path opacity="0.6" fill="#EC1C24" d="M48.136,7.33h4.952v14.614h-4.952V7.33z"/>
			<path opacity="0.6" fill="#FFF100" d="M40.849,14.385L36.972,7.33h5.105l1.314,2.388l1.314-2.388h5.127l-3.879,7.055l4.164,7.56
				h-5.105l-1.621-2.914l-1.6,2.914h-5.105L40.849,14.385z"/>
		</g>
		<g>
			<g>
				<path fill="#5D0000" d="M28.796,3.774c-0.61,0.03-1.236,0.094-1.878,0.191C26.277,4.061,14.31,6.31,13.687,6.433
					c-0.62,0.121-1.223,0.25-1.808,0.387c-0.584,0.137-1.114,0.262-1.593,0.371c0.164,1.358,0.324,2.706,0.487,4.046
					c0.162,1.34,0.338,2.69,0.527,4.056c0.191,1.364,0.401,2.75,0.631,4.155c0.23,1.405,0.494,2.863,0.797,4.372
					c0.006,0.07-0.052,0.139-0.172,0.203c-0.122,0.062-0.255,0.1-0.397,0.112c-0.143,0.012-0.284,0-0.422-0.033
					c-0.138-0.034-0.231-0.122-0.278-0.263c-0.141-0.854-0.28-1.816-0.421-2.888c-0.14-1.07-0.281-2.163-0.425-3.279
					c-0.144-1.114-0.291-2.221-0.442-3.318c-0.152-1.096-0.301-2.107-0.446-3.033c-0.146-0.927-0.287-1.726-0.422-2.4
					c-0.136-0.674-0.26-1.15-0.372-1.432C7.892,7.573,6.799,7.724,5.655,7.942C4.509,8.16,3.403,8.375,2.337,8.587
					C2.162,8.637,2.009,8.639,1.879,8.597C1.749,8.552,1.667,8.487,1.633,8.4C1.6,8.312,1.632,8.21,1.73,8.094
					c0.1-0.115,0.298-0.239,0.594-0.372c1.271-0.335,2.5-0.628,3.688-0.878C7.2,6.595,8.371,6.367,9.527,6.156
					c1.155-0.209,2.32-0.42,3.493-0.632c1.174-0.21,13.717-2.595,14.956-2.874c0.089-0.007,0.197,0.033,0.321,0.122
					c0.125,0.09,0.231,0.198,0.323,0.326c0.091,0.127,0.16,0.257,0.207,0.389C28.874,3.618,28.863,3.714,28.796,3.774z"/>
			</g>
			<g>
				<path fill="#5D0000" d="M14.629,15.823c0.343-0.01,0.724,0.011,1.142,0.057c0.419,0.048,0.83,0.124,1.235,0.226
					c0.404,0.103,0.778,0.227,1.125,0.369c0.346,0.145,0.634,0.314,0.865,0.513c0.231,0.181,0.381,0.471,0.449,0.871
					c0.067,0.399,0.077,0.846,0.026,1.336s-0.15,0.999-0.297,1.524c-0.147,0.526-0.321,1.005-0.521,1.436
					c-0.201,0.432-0.425,0.791-0.672,1.081c-0.246,0.29-0.486,0.445-0.72,0.463c-0.394,0.032-0.732-0.035-1.017-0.2
					c-0.284-0.167-0.517-0.379-0.7-0.635c-0.183-0.257-0.326-0.528-0.43-0.817c-0.105-0.288-0.174-0.54-0.211-0.755
					c-0.128-0.944-0.205-1.786-0.229-2.523c-0.022-0.737-0.01-1.353,0.041-1.843c-0.062-0.085-0.12-0.161-0.181-0.229
					c-0.059-0.065-0.118-0.129-0.177-0.188c-0.059-0.058-0.127-0.111-0.202-0.158c0.068-0.043,0.136-0.102,0.202-0.18
					C14.495,16.05,14.584,15.935,14.629,15.823z M16.111,22.141c0.06,0.068,0.138,0.137,0.233,0.211
					c0.095,0.073,0.213,0.128,0.352,0.162c0.137,0.033,0.275,0.027,0.417-0.021c0.141-0.046,0.285-0.157,0.433-0.332
					c0.396-0.481,0.679-0.968,0.857-1.461c0.177-0.491,0.278-0.951,0.309-1.377c0.029-0.426-0.011-0.798-0.116-1.113
					c-0.106-0.316-0.256-0.538-0.446-0.667c-0.15-0.078-0.277-0.146-0.381-0.2c-0.104-0.054-0.233-0.103-0.391-0.145
					c-0.156-0.04-0.354-0.083-0.591-0.128c-0.238-0.044-0.551-0.104-0.935-0.184c-0.135,0.589-0.214,1.172-0.239,1.751
					c-0.025,0.58-0.016,1.105,0.033,1.581c0.047,0.475,0.115,0.882,0.206,1.227C15.943,21.791,16.03,22.023,16.111,22.141z"/>
			</g>
			<g>
				<path fill="#5D0000" d="M22.062,22.152c0.131,0.079,0.326-0.09,0.581-0.507c0.254-0.418,0.492-0.946,0.712-1.585
					c0.22-0.641,0.391-1.317,0.514-2.03s0.127-1.326,0.014-1.84c-0.008-0.108,0.031-0.179,0.118-0.213
					c0.088-0.033,0.189-0.056,0.308-0.064c0.114-0.01,0.232-0.01,0.35-0.002c0.118,0.009,0.204,0.021,0.26,0.033
					c-0.005,0.398-0.013,0.899-0.027,1.503c-0.016,0.605-0.007,1.205,0.022,1.798c0.028,0.593,0.094,1.129,0.196,1.607
					c0.102,0.478,0.275,0.78,0.519,0.903c0.208,0.11,0.435,0.084,0.683-0.08c0.249-0.165,0.485-0.363,0.71-0.599
					c0.225-0.233,0.429-0.444,0.612-0.631c0.183-0.186,0.305-0.254,0.362-0.204c-0.049,0.311-0.176,0.617-0.387,0.924
					c-0.21,0.305-0.454,0.568-0.733,0.789s-0.583,0.385-0.908,0.491c-0.325,0.108-0.625,0.118-0.902,0.032
					c-0.11-0.009-0.203-0.105-0.28-0.287c-0.079-0.185-0.149-0.399-0.215-0.647c-0.063-0.247-0.123-0.513-0.173-0.796
					c-0.048-0.286-0.102-0.543-0.155-0.773c-0.121,0.298-0.256,0.634-0.406,1.006c-0.151,0.374-0.303,0.729-0.456,1.065
					c-0.152,0.337-0.301,0.628-0.443,0.873c-0.143,0.247-0.266,0.392-0.371,0.437c-0.347,0.172-0.622,0.225-0.825,0.161
					c-0.204-0.065-0.348-0.167-0.431-0.305c-0.111-0.044-0.203-0.223-0.272-0.532c-0.069-0.311-0.137-0.705-0.203-1.187
					c-0.066-0.482-0.123-1.026-0.171-1.638c-0.05-0.608-0.1-1.231-0.15-1.867s-0.111-1.263-0.179-1.878
					c-0.067-0.617-0.139-1.185-0.217-1.701c0.125-0.01,0.25-0.011,0.378-0.003c0.108,0.009,0.219,0.022,0.328,0.041
					c0.11,0.019,0.203,0.07,0.282,0.153c0.123,0.406,0.195,1.13,0.215,2.173c0.021,1.046,0.072,2.304,0.155,3.775
					c0.004,0.054,0.016,0.156,0.038,0.308c0.021,0.151,0.052,0.316,0.093,0.492c0.041,0.178,0.101,0.344,0.176,0.501
					C21.856,22.006,21.949,22.105,22.062,22.152z"/>
			</g>
			<g>
				<path fill="#5D0000" d="M27.146,14.387c-0.03-0.161,0.051-0.208,0.246-0.143c0.195,0.064,0.394,0.136,0.599,0.209
					c0.104,0.407,0.185,0.729,0.24,0.969c0.054,0.238,0.101,0.464,0.135,0.678c0.035,0.214,0.073,0.445,0.11,0.694
					c0.038,0.251,0.092,0.579,0.16,0.989c0.129-0.426,0.295-0.822,0.499-1.19c0.205-0.368,0.481-0.693,0.828-0.973
					c0.348-0.28,0.771-0.499,1.272-0.657c0.502-0.155,1.113-0.247,1.832-0.267c0.012,0.143-0.028,0.267-0.119,0.374
					c-0.091,0.106-0.313,0.2-0.667,0.282c-0.512,0.133-0.95,0.343-1.314,0.634c-0.366,0.292-0.672,0.617-0.923,0.979
					c-0.251,0.363-0.444,0.744-0.584,1.143s-0.25,0.764-0.332,1.094c-0.005,0.164-0.008,0.394-0.012,0.691s0.005,0.613,0.021,0.945
					c0.018,0.333,0.035,0.656,0.051,0.97c0.016,0.314,0.05,0.559,0.101,0.735c0.024,0.089-0.011,0.16-0.105,0.212
					c-0.096,0.052-0.204,0.092-0.328,0.12c-0.124,0.027-0.241,0.028-0.353,0.003c-0.109-0.028-0.169-0.087-0.176-0.176
					c-0.112-1.848-0.289-3.436-0.53-4.759C27.555,16.621,27.34,15.435,27.146,14.387z"/>
			</g>
		</g>
	</g>
	<circle fill="none" cx="61.591" cy="22.139" r="27.217"/>
	<text transform="matrix(0.8106 0.5856 -0.5856 0.8106 44.4114 43.3064)"><tspan x="0" y="0" fill="#001C36" font-family="'DolceVitaHeavy-Bold'" font-size="5.8301">C</tspan><tspan x="3.431" y="-0.015" fill="#001C36" font-family="'DolceVitaHeavy-Bold'" font-size="5.8301" rotate="-7.334">r</tspan><tspan x="6.904" y="-0.499" fill="#001C36" font-family="'DolceVitaHeavy-Bold'" font-size="5.8301" rotate="-14.063">e</tspan><tspan x="9.757" y="-1.196" fill="#001C36" font-family="'DolceVitaHeavy-Bold'" font-size="5.8301" rotate="-21.596">a</tspan><tspan x="13.646" y="-2.776" fill="#001C36" font-family="'DolceVitaHeavy-Bold'" font-size="5.8301" rotate="-30.229">n</tspan><tspan x="17.069" y="-4.802" fill="#001C36" font-family="'DolceVitaHeavy-Bold'" font-size="5.8301" rotate="-38.476">d</tspan><tspan x="20.221" y="-7.307" fill="#001C36" font-family="'DolceVitaHeavy-Bold'" font-size="5.8301" rotate="-47.77">o</tspan><tspan x="23.313" y="-10.873" fill="#001C36" font-family="'DolceVitaHeavy-Bold'" font-size="5.8301" rotate="-54.629"> </tspan><tspan x="24.42" y="-12.276" fill="#001C36" font-family="'DolceVitaHeavy-Bold'" font-size="5.8301" rotate="-62.053">m</tspan><tspan x="26.753" y="-16.961" fill="#001C36" font-family="'DolceVitaHeavy-Bold'" font-size="5.8301" rotate="-69.288">i</tspan><tspan x="27.26" y="-18.309" fill="#001C36" font-family="'DolceVitaHeavy-Bold'" font-size="5.8301" rotate="-72.466"> </tspan><tspan x="27.795" y="-19.907" fill="#001C36" font-family="'DolceVitaHeavy-Bold'" font-size="5.8301" rotate="-77.813">p</tspan><tspan x="28.519" y="-23.349" fill="#001C36" font-family="'DolceVitaHeavy-Bold'" font-size="5.8301" rotate="-85.205">r</tspan><tspan x="28.836" y="-26.961" fill="#001C36" font-family="'DolceVitaHeavy-Bold'" font-size="5.8301" rotate="-94.043">o</tspan><tspan x="28.419" y="-31.763" fill="#001C36" font-family="'DolceVitaHeavy-Bold'" font-size="5.8301" rotate="-102.925">p</tspan><tspan x="27.602" y="-35.085" fill="#001C36" font-family="'DolceVitaHeavy-Bold'" font-size="5.8301" rotate="-108.168">i</tspan><tspan x="27.177" y="-36.614" fill="#001C36" font-family="'DolceVitaHeavy-Bold'" font-size="5.8301" rotate="-114.818">o</tspan><tspan x="25.089" y="-40.873" fill="#001C36" font-family="'DolceVitaHeavy-Bold'" font-size="5.8301" rotate="-121.679"> </tspan><tspan x="24.23" y="-42.34" fill="#001C36" font-family="'DolceVitaHeavy-Bold'" font-size="5.8301" rotate="-127.431">d</tspan><tspan x="21.813" y="-45.415" fill="#001C36" font-family="'DolceVitaHeavy-Bold'" font-size="5.8301" rotate="-134.532">e</tspan><tspan x="19.796" y="-47.46" fill="#001C36" font-family="'DolceVitaHeavy-Bold'" font-size="5.8301" rotate="-141.077">s</tspan><tspan x="17.192" y="-49.529" fill="#001C36" font-family="'DolceVitaHeavy-Bold'" font-size="5.8301" rotate="-147.85">t</tspan><tspan x="14.646" y="-51.084" fill="#001C36" font-family="'DolceVitaHeavy-Bold'" font-size="5.8301" rotate="-152.616">i</tspan><tspan x="13.298" y="-51.832" fill="#001C36" font-family="'DolceVitaHeavy-Bold'" font-size="5.8301" rotate="-158.296">n</tspan><tspan x="9.542" y="-53.324" fill="#001C36" font-family="'DolceVitaHeavy-Bold'" font-size="5.8301" rotate="-167.599">o</tspan></text>
</g>
</svg>
