<?xml version="1.0" encoding="utf-8"?>
<!-- Generator: Adobe Illustrator 16.0.0, SVG Export Plug-In . SVG Version: 6.00 Build 0)  -->
<!DOCTYPE svg PUBLIC "-//W3C//DTD SVG 1.1//EN" "http://www.w3.org/Graphics/SVG/1.1/DTD/svg11.dtd">
<svg version="1.1" id="Layer_1" xmlns="http://www.w3.org/2000/svg" xmlns:xlink="http://www.w3.org/1999/xlink" x="0px" y="0px"
	 width="283.46px" height="283.46px" viewBox="0 0 283.46 283.46" enable-background="new 0 0 283.46 283.46" xml:space="preserve">
<g>
	<path fill="#F47920" d="M132.964,162.761c-0.104,0.396-0.211,0.732-0.297,1.07c-5.074,19.881-5.639,24.291-10.851,33.516
		c-2.485,4.393-5.294,8.552-8.388,12.521c-0.362,0.448-0.678,1.035-1.376,0.896c-0.759-0.172-0.833-0.854-0.919-1.467
		c-0.841-6.049-1.29-12.098-1.087-18.199c0.254-7.947,1.247-10.674,11.477-53.733c0.16-0.652-0.017-1.2-0.229-1.791
		c-2.438-6.618-2.934-13.328-0.794-20.123c4.63-14.683,21.284-15.817,24.184-3.693c1.795,7.503-2.951,17.302-6.593,31.812
		c-3.003,11.97,11.062,20.46,23.11,11.735c11.096-8.051,15.395-27.358,14.582-41.036c-1.631-27.269-31.514-33.162-50.494-24.391
		c-21.746,10.057-26.695,37.011-16.879,49.342c1.255,1.566,2.209,2.528,1.795,4.112c-0.639,2.463-1.204,4.965-1.873,7.408
		c-0.522,1.828-2.032,2.484-3.879,1.733c-3.624-1.468-6.64-3.771-9.078-6.81c-8.34-10.333-10.734-30.746,0.294-48.056
		c12.219-19.157,34.948-26.906,55.692-24.555c24.783,2.817,40.438,19.748,43.37,38.961c1.329,8.746,0.38,30.323-11.907,45.575
		c-14.144,17.525-37.037,18.689-47.604,7.922C134.415,164.72,133.771,163.762,132.964,162.761z"/>
</g>
</svg>
