<?xml version="1.0" encoding="utf-8"?>
<!-- Generator: Adobe Illustrator 16.0.0, SVG Export Plug-In . SVG Version: 6.00 Build 0)  -->
<!DOCTYPE svg PUBLIC "-//W3C//DTD SVG 1.1//EN" "http://www.w3.org/Graphics/SVG/1.1/DTD/svg11.dtd">
<svg version="1.1" id="Layer_1" xmlns="http://www.w3.org/2000/svg" xmlns:xlink="http://www.w3.org/1999/xlink" x="0px" y="0px"
	 width="283.46px" height="283.46px" viewBox="0 0 283.46 283.46" enable-background="new 0 0 283.46 283.46" xml:space="preserve">
<g>
	<path fill="#F47920" d="M117.928,174.186c-15.075-0.544-24.494-11.347-26.997-20.132c4.198,0.794,8.323,0.63,12.435-0.362
		c0.104-0.019,0.211-0.112,0.414-0.188c-8.163-1.898-14.467-6.258-18.838-13.298c-2.908-4.677-4.297-9.803-4.254-15.429
		c4.077,2.183,8.336,3.391,12.914,3.517c-6.144-4.418-10.26-10.204-11.938-17.604c-1.67-7.378-0.596-14.393,3.111-21.012
		c15.709,18.505,35.583,28.649,59.83,30.318c-0.168-1.147-0.346-2.157-0.471-3.171c-0.803-6.821,0.549-13.194,4.242-18.963
		c4.606-7.24,11.199-11.735,19.674-13.116c9.752-1.597,18.26,1.187,25.388,8.085c0.483,0.461,0.88,0.613,1.554,0.461
		c5.963-1.29,11.59-3.447,16.879-6.484c0.121-0.073,0.241-0.143,0.379-0.194c0.019-0.021,0.069-0.013,0.19-0.013
		c-2.305,6.752-6.474,11.947-12.427,15.783c5.627-0.608,10.977-2.101,16.154-4.345c0.033,0.043,0.086,0.086,0.121,0.13
		c-1.105,1.458-2.192,2.942-3.332,4.349c-3.09,3.801-6.609,7.132-10.545,10.018c-0.336,0.25-0.5,0.488-0.482,0.911
		c0.164,4.306,0,8.608-0.535,12.883c-1.122,9.013-3.643,17.612-7.49,25.827c-3.969,8.475-9.146,16.137-15.67,22.867
		c-11.046,11.426-24.354,18.795-39.859,22.221c-5.32,1.174-10.708,1.77-16.163,1.916c-16.728,0.51-32.191-3.658-46.416-12.461
		c-0.186-0.104-0.363-0.232-0.682-0.432c10.126,1.088,19.748-0.198,29.02-4.004C109.044,180.218,113.605,177.578,117.928,174.186z"
		/>
</g>
</svg>
