<?xml version="1.0" encoding="utf-8"?>
<!-- Generator: Adobe Illustrator 16.0.0, SVG Export Plug-In . SVG Version: 6.00 Build 0)  -->
<!DOCTYPE svg PUBLIC "-//W3C//DTD SVG 1.1//EN" "http://www.w3.org/Graphics/SVG/1.1/DTD/svg11.dtd">
<svg version="1.1" id="Layer_1" xmlns="http://www.w3.org/2000/svg" xmlns:xlink="http://www.w3.org/1999/xlink" x="0px" y="0px"
	 width="283.46px" height="283.46px" viewBox="0 0 283.46 283.46" enable-background="new 0 0 283.46 283.46" xml:space="preserve">
<g>
	<path fill="#F47920" d="M207.228,111.328c-1.131,24.555-46.003,86.987-71.981,86.987c-7.637,0-14.104-7.06-19.386-21.177
		c-10.118-37.092-14.601-59.925-23.217-59.925c-0.979,0-4.41,2.032-10.282,6.157l-6.17-7.917
		c16.409-14.428,29.697-27.993,38.482-28.804c10.187-0.979,16.452,5.971,18.803,20.861c3.024,19.088,7.378,49.955,14.983,49.955
		c5.887,0,20.399-23.928,21.168-32.609c1.304-12.37-8.861-13.077-18.526-9.108c6.463-20.952,18.812-31.147,37.021-30.547
		C201.636,85.561,208.013,94.272,207.228,111.328L207.228,111.328z"/>
</g>
</svg>
