<?xml version="1.0" encoding="utf-8"?>
<!-- Generator: Adobe Illustrator 16.0.0, SVG Export Plug-In . SVG Version: 6.00 Build 0)  -->
<!DOCTYPE svg PUBLIC "-//W3C//DTD SVG 1.1//EN" "http://www.w3.org/Graphics/SVG/1.1/DTD/svg11.dtd">
<svg version="1.1" id="Layer_1" xmlns="http://www.w3.org/2000/svg" xmlns:xlink="http://www.w3.org/1999/xlink" x="0px" y="0px"
	 width="283.46px" height="283.46px" viewBox="0 0 283.46 283.46" enable-background="new 0 0 283.46 283.46" xml:space="preserve">
<g>
	<g>
		<path fill="#F47920" d="M129.59,71.715h-7.943l-5.354,20.589l-5.565-20.589h-8.289c1.661,4.85,3.382,9.738,5.035,14.614
			c2.52,7.317,4.09,12.823,4.807,16.585v21.245h7.857v-21.245L129.59,71.715z M150.585,111.496V97.81
			c0-4.181-0.717-7.231-2.209-9.198c-1.967-2.68-4.709-4.004-8.271-4.004c-3.517,0-6.291,1.324-8.254,4.004
			c-1.501,1.967-2.209,5.018-2.209,9.198v13.686c0,4.16,0.708,7.245,2.209,9.199c1.963,2.658,4.72,4.004,8.254,4.004
			c3.542,0,6.305-1.346,8.271-4.004C149.871,118.741,150.585,115.656,150.585,111.496z M143.509,112.838
			c0,3.625-1.096,5.419-3.387,5.419c-2.278,0-3.383-1.795-3.383-5.419V96.395c0-3.607,1.104-5.419,3.383-5.419
			c2.299,0,3.387,1.812,3.387,5.419V112.838z M176.785,124.151V85.074h-7.084v29.878c-1.562,2.209-3.064,3.314-4.472,3.314
			c-0.958,0-1.501-0.548-1.665-1.661c-0.086-0.225-0.086-1.105-0.086-2.757V85.074h-7.059v30.91c0,2.757,0.24,4.621,0.621,5.816
			c0.707,1.989,2.285,2.917,4.572,2.917c2.58,0,5.281-1.575,8.094-4.815v4.258h7.076v-0.009H176.785z"/>
		<g>
			<path fill="#F47920" d="M154.589,163.556c-1.148,0-2.33,0.544-3.504,1.699v23.574c1.156,1.174,2.348,1.719,3.504,1.719
				c2.02,0,3.037-1.719,3.037-5.213V168.82C157.619,165.341,156.591,163.556,154.589,163.556z"/>
			<path fill="#F47920" d="M180.582,163.556c-2.348,0-3.504,1.785-3.504,5.376v3.563h6.998v-3.563
				C184.076,165.341,182.912,163.556,180.582,163.556z"/>
			<path fill="#F47920" d="M197.708,143.89c-1.405-6.161-6.445-10.718-12.529-11.39c-14.376-1.61-28.934-1.61-43.43-1.61
				c-14.493,0-29.046,0-43.422,1.61c-6.088,0.672-11.131,5.229-12.538,11.39c-2.024,8.811-2.041,18.389-2.041,27.434
				c0,9.033,0,18.611,2.024,27.424c1.415,6.16,6.45,10.698,12.529,11.39c14.376,1.604,28.92,1.604,43.431,1.604
				c14.497,0,29.055,0,43.432-1.604c6.082-0.69,11.113-5.229,12.537-11.39c2.021-8.785,2.037-18.381,2.037-27.424
				C199.72,162.261,199.738,152.701,197.708,143.89z M116.833,151.82h-8.405v44.598h-7.792V151.82H92.39v-7.33h24.442
				L116.833,151.82L116.833,151.82z M138.013,196.417h-7.007v-4.237c-2.782,3.185-5.436,4.745-8.016,4.745
				c-2.252,0-3.814-0.924-4.513-2.881c-0.389-1.176-0.622-3.021-0.622-5.738v-30.583h7.007v28.478c0,1.639,0,2.502,0.065,2.727
				c0.186,1.088,0.708,1.641,1.652,1.641c1.394,0,2.869-1.078,4.435-3.271v-29.572h7.007v38.693H138.013L138.013,196.417z
				 M164.634,184.792c0,3.59-0.242,6.16-0.709,7.801c-0.922,2.882-2.811,4.35-5.607,4.35c-2.486,0-4.895-1.398-7.232-4.271v3.746
				h-7.01V144.5h7.01v16.951c2.262-2.779,4.66-4.203,7.232-4.203c2.797,0,4.678,1.469,5.607,4.367
				c0.467,1.553,0.709,4.107,0.709,7.766V184.792z M191.083,178.346h-14.016v6.843c0,3.591,1.166,5.359,3.582,5.359
				c1.708,0,2.727-0.94,3.123-2.805c0.068-0.381,0.156-1.934,0.156-4.746h7.171v1.019c0,2.243-0.086,3.797-0.165,4.504
				c-0.225,1.562-0.775,2.969-1.622,4.22c-1.95,2.805-4.823,4.194-8.491,4.194c-3.658,0-6.453-1.312-8.474-3.952
				c-1.483-1.934-2.252-4.988-2.252-9.096v-13.539c0-4.15,0.673-7.18,2.166-9.131c2.019-2.641,4.813-3.951,8.388-3.951
				c3.521,0,6.309,1.312,8.268,3.951c1.467,1.978,2.174,4.979,2.174,9.131L191.083,178.346L191.083,178.346z"/>
		</g>
	</g>
</g>
</svg>
